<?xml version="1.0" encoding="UTF-8" standalone="no"?>
<!-- Created with Inkscape (http://www.inkscape.org/) -->

<svg
   width="427.57239mm"
   height="127.16504mm"
   viewBox="0 0 427.57239 127.16504"
   version="1.1"
   id="svg5"
   inkscape:version="1.2 (dc2aedaf03, 2022-05-15)"
   sodipodi:docname="fiberui.svg"
   inkscape:export-filename="fiberui.png"
   inkscape:export-xdpi="96"
   inkscape:export-ydpi="96"
   xmlns:inkscape="http://www.inkscape.org/namespaces/inkscape"
   xmlns:sodipodi="http://sodipodi.sourceforge.net/DTD/sodipodi-0.dtd"
   xmlns="http://www.w3.org/2000/svg"
   xmlns:svg="http://www.w3.org/2000/svg">
  <sodipodi:namedview
     id="namedview7"
     pagecolor="#ffffff"
     bordercolor="#eeeeee"
     borderopacity="1"
     inkscape:showpageshadow="0"
     inkscape:pageopacity="0"
     inkscape:pagecheckerboard="0"
     inkscape:deskcolor="#505050"
     inkscape:document-units="mm"
     showgrid="false"
     inkscape:zoom="0.24810255"
     inkscape:cx="985.47958"
     inkscape:cy="84.642418"
     inkscape:window-width="1360"
     inkscape:window-height="715"
     inkscape:window-x="-8"
     inkscape:window-y="-8"
     inkscape:window-maximized="1"
     inkscape:current-layer="layer1" />
  <defs
     id="defs2" />
  <g
     inkscape:label="Layer 1"
     inkscape:groupmode="layer"
     id="layer1"
     transform="translate(-3.134845e-7,-169.83496)">
    <g
       id="g3814"
       transform="translate(-43.901982,100.69976)">
      <g
         id="g2650"
         transform="matrix(0.26458333,0,0,0.26458333,43.980127,64.85917)">
        <path
           id="path415"
           style="opacity:1;fill:#fc631a;fill-opacity:1;stroke:none;stroke-width:13.1428;stroke-linecap:round;paint-order:stroke markers fill"
           d="m 90.66168,183.43554 a 165.2218,165.70334 0 0 0 -90.95703,147.64648 165.2218,165.70334 0 0 0 165.22266,165.70313 165.2218,165.70334 0 0 0 165.2207,-165.70313 165.2218,165.70334 0 0 0 -0.0625,-2.58203 165.2218,165.70334 0 0 1 -5.74609,3.14649 165.2218,165.70334 0 0 1 -22.08594,8.26367 165.2218,165.70334 0 0 1 -23.03516,5.02539 165.2218,165.70334 0 0 1 -23.51367,1.68555 165.2218,165.70334 0 0 1 -23.51367,-1.68555 165.2218,165.70334 0 0 1 -23.03516,-5.02539 165.2218,165.70334 0 0 1 -22.08594,-8.26367 165.2218,165.70334 0 0 1 -20.6914,-11.33008 165.2218,165.70334 0 0 1 -18.8711,-14.16797 165.2218,165.70334 0 0 1 -16.66992,-16.71875 165.2218,165.70334 0 0 1 -14.12695,-18.92578 165.2218,165.70334 0 0 1 -11.29688,-20.75 165.2218,165.70334 0 0 1 -8.23828,-22.15235 165.2218,165.70334 0 0 1 -5.01172,-23.10156 165.2218,165.70334 0 0 1 -1.50195,-21.06445 z" />
        <path
           id="path1935"
           style="opacity:1;fill:#25d9f8;fill-opacity:1;stroke:none;stroke-width:13.1428;stroke-linecap:round;paint-order:stroke markers fill"
           d="m 346.2418,163.83131 a 165.2218,165.70334 0 0 0 -91.67187,28.06836 165.2218,165.70334 0 0 1 1.9082,1.21094 165.2218,165.70334 0 0 1 6.63086,4.68358 165.2218,165.70334 0 0 1 6.39258,5.00392 165.2218,165.70334 0 0 1 6.14062,5.3125 165.2218,165.70334 0 0 1 5.87305,5.60741 165.2218,165.70334 0 0 1 5.5918,5.89063 165.2218,165.70334 0 0 1 5.29687,6.15821 165.2218,165.70334 0 0 1 4.99024,6.4121 165.2218,165.70334 0 0 1 4.66992,6.6504 165.2218,165.70334 0 0 1 4.33789,6.87108 165.2218,165.70334 0 0 1 3.99609,7.07617 165.2218,165.70334 0 0 1 3.64649,7.26563 165.2218,165.70334 0 0 1 3.28711,7.43359 165.2218,165.70334 0 0 1 2.91797,7.58985 165.2218,165.70334 0 0 1 2.54492,7.72265 165.2218,165.70334 0 0 1 2.16211,7.83789 165.2218,165.70334 0 0 1 1.77734,7.93555 165.2218,165.70334 0 0 1 1.38672,8.01367 165.2218,165.70334 0 0 1 0.99219,8.07227 165.2218,165.70334 0 0 1 0.5957,8.10937 165.2218,165.70334 0 0 1 0.19922,8.13086 165.2218,165.70334 0 0 1 -1.68164,23.58203 165.2218,165.70334 0 0 1 -5.01172,23.10352 165.2218,165.70334 0 0 1 -8.23633,22.15039 165.2218,165.70334 0 0 1 -11.29883,20.75 165.2218,165.70334 0 0 1 -14.12695,18.92773 165.2218,165.70334 0 0 1 -16.66797,16.7168 165.2218,165.70334 0 0 1 -16.51758,12.40039 165.2218,165.70334 0 0 0 89.875,26.71875 A 165.2218,165.70334 0 0 0 511.46446,329.53444 165.2218,165.70334 0 0 0 346.2418,163.83131 Z" />
        <path
           id="ellipse2076"
           style="opacity:1;fill:#9cdd05;fill-opacity:1;stroke:none;stroke-width:13.1428;stroke-linecap:round;paint-order:stroke markers fill"
           d="m 420.33096,183.42286 a 165.2218,165.70334 0 0 0 -3.60156,-1.81836 165.2218,165.70334 0 0 0 -7.41406,-3.29688 165.2218,165.70334 0 0 0 -7.56641,-2.92578 165.2218,165.70334 0 0 0 -7.69922,-2.55274 165.2218,165.70334 0 0 0 -7.8164,-2.16797 165.2218,165.70334 0 0 0 -7.91211,-1.7832 165.2218,165.70334 0 0 0 -7.99024,-1.39063 165.2218,165.70334 0 0 0 -8.04882,-0.99414 165.2218,165.70334 0 0 0 -8.08789,-0.59961 165.2218,165.70334 0 0 0 -8.10743,-0.19922 165.2218,165.70334 0 0 0 -23.51172,1.6875 165.2218,165.70334 0 0 0 -23.03515,5.02539 165.2218,165.70334 0 0 0 -22.08789,8.26173 165.2218,165.70334 0 0 0 -20.68946,11.33008 165.2218,165.70334 0 0 0 -18.87304,14.16796 165.2218,165.70334 0 0 0 -16.66797,16.71875 165.2218,165.70334 0 0 0 -14.12695,18.92578 165.2218,165.70334 0 0 0 -11.29883,20.75 165.2218,165.70334 0 0 0 -8.23633,22.15236 165.2218,165.70334 0 0 0 -5.01172,23.10156 165.2218,165.70334 0 0 0 -1.45898,20.45703 165.2218,165.70334 0 0 0 74.2207,18.0332 165.2218,165.70334 0 0 0 165.02148,-162.88281 z" />
        <path
           id="path2080"
           style="opacity:1;fill:#ffda2d;fill-opacity:1;stroke:none;stroke-width:13.1428;stroke-linecap:round;paint-order:stroke markers fill"
           d="M 256,16.161376 A 165.2218,165.70334 0 0 0 90.77734,181.8645 a 165.2218,165.70334 0 0 0 91.00196,147.66993 165.2218,165.70334 0 0 1 1.45898,-20.45703 165.2218,165.70334 0 0 1 5.01172,-23.10156 165.2218,165.70334 0 0 1 8.23633,-22.15236 165.2218,165.70334 0 0 1 11.29883,-20.75 165.2218,165.70334 0 0 1 14.12695,-18.92578 165.2218,165.70334 0 0 1 16.66797,-16.71875 165.2218,165.70334 0 0 1 18.87304,-14.16797 165.2218,165.70334 0 0 1 20.68946,-11.33008 165.2218,165.70334 0 0 1 22.08789,-8.26172 165.2218,165.70334 0 0 1 23.03515,-5.02539 165.2218,165.70334 0 0 1 23.51172,-1.6875 165.2218,165.70334 0 0 1 8.10743,0.19922 165.2218,165.70334 0 0 1 8.08789,0.59961 165.2218,165.70334 0 0 1 8.04882,0.99414 165.2218,165.70334 0 0 1 7.99024,1.39063 165.2218,165.70334 0 0 1 7.91211,1.7832 165.2218,165.70334 0 0 1 7.8164,2.16797 165.2218,165.70334 0 0 1 7.69922,2.55273 165.2218,165.70334 0 0 1 7.56641,2.92578 165.2218,165.70334 0 0 1 7.41406,3.29688 165.2218,165.70334 0 0 1 3.60156,1.81836 165.2218,165.70334 0 0 0 0.20118,-2.82031 A 165.2218,165.70334 0 0 0 256,16.161376 Z" />
        <path
           id="path1505"
           style="opacity:1;fill:#ff9100;fill-opacity:1;stroke:none;stroke-width:13.1428;stroke-linecap:round;paint-order:stroke markers fill"
           d="m 90.661688,183.43555 a 165.2218,165.70334 0 0 0 1.50195,21.06445 165.2218,165.70334 0 0 0 5.01172,23.10156 165.2218,165.70334 0 0 0 8.238282,22.15235 165.2218,165.70334 0 0 0 11.29687,20.75 165.2218,165.70334 0 0 0 14.12695,18.92578 165.2218,165.70334 0 0 0 16.66992,16.71874 165.2218,165.70334 0 0 0 18.8711,14.16797 165.2218,165.70334 0 0 0 20.6914,11.33008 165.2218,165.70334 0 0 0 22.08594,8.26367 165.2218,165.70334 0 0 0 23.03516,5.02539 165.2218,165.70334 0 0 0 23.51367,1.68555 165.2218,165.70334 0 0 0 23.51368,-1.68555 165.2218,165.70334 0 0 0 23.03515,-5.02539 165.2218,165.70334 0 0 0 22.08594,-8.26367 165.2218,165.70334 0 0 0 5.74609,-3.14649 165.2218,165.70334 0 0 0 -165.1582,-163.12108 165.2218,165.70334 0 0 0 -74.265622,18.05664 z" />
        <path
           id="ellipse1448"
           style="opacity:1;fill:#2c3b73;fill-opacity:1;stroke:none;stroke-width:13.1428;stroke-linecap:round;paint-order:stroke markers fill"
           d="m 256.3668,468.51879 a 165.2218,165.70334 0 0 0 16.51758,-12.40038 165.2218,165.70334 0 0 0 16.66797,-16.7168 165.2218,165.70334 0 0 0 14.12695,-18.92773 165.2218,165.70334 0 0 0 11.29883,-20.75 165.2218,165.70334 0 0 0 8.23633,-22.15039 165.2218,165.70334 0 0 0 5.01172,-23.10352 165.2218,165.70334 0 0 0 1.68164,-23.58203 165.2218,165.70334 0 0 0 -0.19922,-8.13086 165.2218,165.70334 0 0 0 -0.5957,-8.10937 165.2218,165.70334 0 0 0 -0.99219,-8.07227 165.2218,165.70334 0 0 0 -1.38672,-8.01367 165.2218,165.70334 0 0 0 -1.77734,-7.93555 165.2218,165.70334 0 0 0 -2.16211,-7.83789 165.2218,165.70334 0 0 0 -2.54492,-7.72265 165.2218,165.70334 0 0 0 -2.91797,-7.58985 165.2218,165.70334 0 0 0 -3.28711,-7.43359 165.2218,165.70334 0 0 0 -3.64649,-7.26563 165.2218,165.70334 0 0 0 -3.99609,-7.07617 165.2218,165.70334 0 0 0 -4.33789,-6.87109 165.2218,165.70334 0 0 0 -4.66992,-6.65039 165.2218,165.70334 0 0 0 -4.99024,-6.41211 165.2218,165.70334 0 0 0 -5.29687,-6.1582 165.2218,165.70334 0 0 0 -5.5918,-5.89063 165.2218,165.70334 0 0 0 -5.87305,-5.60742 165.2218,165.70334 0 0 0 -6.14062,-5.3125 165.2218,165.70334 0 0 0 -6.39258,-5.00391 165.2218,165.70334 0 0 0 -6.63086,-4.68359 165.2218,165.70334 0 0 0 -1.9082,-1.21094 165.2218,165.70334 0 0 0 -73.54883,137.63477 165.2218,165.70334 0 0 0 75.3457,138.98436 z" />
      </g>
      <text
         xml:space="preserve"
         style="font-weight:bold;font-size:82.8184px;font-family:Arial;-inkscape-font-specification:'Arial Bold';fill:none;stroke:#000000;stroke-width:2.38364;stroke-linecap:round;stroke-dasharray:none;stroke-opacity:1;paint-order:stroke markers fill"
         x="179.70457"
         y="162.23405"
         id="text3121"><tspan
           sodipodi:role="line"
           id="tspan3119"
           x="179.70457"
           y="162.23405"
           style="font-style:normal;font-variant:normal;font-weight:bold;font-stretch:normal;font-family:'Arial Rounded MT Bold';-inkscape-font-specification:'Arial Rounded MT Bold,  Bold';fill:#000000;fill-opacity:1;stroke:#000000;stroke-width:2.38364;stroke-dasharray:none;stroke-opacity:1">Fiber</tspan></text>
      <text
         xml:space="preserve"
         style="font-weight:bold;font-size:82.8184px;font-family:Arial;-inkscape-font-specification:'Arial Bold';fill:#fc631a;fill-opacity:1;stroke:#fc631a;stroke-width:2.38364;stroke-linecap:round;stroke-dasharray:none;stroke-opacity:1;paint-order:stroke markers fill"
         x="388.72433"
         y="162.23405"
         id="text3538"><tspan
           sodipodi:role="line"
           id="tspan3536"
           x="388.72433"
           y="162.23405"
           style="font-style:normal;font-variant:normal;font-weight:bold;font-stretch:normal;font-family:'Arial Rounded MT Bold';-inkscape-font-specification:'Arial Rounded MT Bold,  Bold';fill:#fc631a;fill-opacity:1;stroke:#fc631a;stroke-width:2.38364;stroke-dasharray:none;stroke-opacity:1">U</tspan></text>
      <text
         xml:space="preserve"
         style="font-weight:bold;font-size:82.8184px;font-family:Arial;-inkscape-font-specification:'Arial Bold';fill:#2c3b73;fill-opacity:1;stroke:#2c3b73;stroke-width:2.38364;stroke-linecap:round;stroke-dasharray:none;stroke-opacity:1;paint-order:stroke markers fill"
         x="451.3168"
         y="162.23405"
         id="text3542"><tspan
           sodipodi:role="line"
           id="tspan3540"
           x="451.3168"
           y="162.23405"
           style="font-style:normal;font-variant:normal;font-weight:bold;font-stretch:normal;font-family:'Arial Rounded MT Bold';-inkscape-font-specification:'Arial Rounded MT Bold,  Bold';fill:#2c3b73;fill-opacity:1;stroke:#2c3b73;stroke-width:2.38364;stroke-dasharray:none;stroke-opacity:1">I</tspan></text>
    </g>
  </g>
</svg>
